<svg xmlns="http://www.w3.org/2000/svg" viewBox="0 0 1280 320" role="img" aria-label="Sydney location artwork">
  <defs>
    <linearGradient id="sky" x1="0" y1="0" x2="1" y2="1">
      <stop offset="0" stop-color="#095d70"/>
      <stop offset="0.58" stop-color="#d14f8f"/>
      <stop offset="1" stop-color="#f4d4e4"/>
    </linearGradient>
    <linearGradient id="water" x1="0" y1="0" x2="1" y2="0">
      <stop offset="0" stop-color="#dff3f1" stop-opacity="0.68"/>
      <stop offset="1" stop-color="#ffffff" stop-opacity="0.28"/>
    </linearGradient>
  </defs>
  <rect width="1280" height="320" fill="url(#sky)"/>
  <circle cx="1020" cy="78" r="54" fill="#fff6d7" opacity="0.68"/>
  <path d="M0 170 C160 120 270 148 420 110 C610 64 760 130 960 86 C1110 52 1240 92 1280 76 L1280 320 L0 320 Z" fill="#063d46" opacity="0.34"/>
  <path d="M220 210 C248 164 285 164 312 210 C274 194 258 194 220 210 Z M330 210 C365 148 414 148 450 210 C404 190 376 190 330 210 Z" fill="none" stroke="#ffffff" stroke-width="12" stroke-linecap="round" stroke-linejoin="round" opacity="0.44"/>
  <path d="M690 202 C720 154 762 154 792 202 M650 204 C690 134 762 118 830 204 M600 210 H910" fill="none" stroke="#ffffff" stroke-width="14" stroke-linecap="round" stroke-linejoin="round" opacity="0.72"/>
  <path d="M0 238 C170 210 330 252 510 224 C710 192 900 240 1280 202 L1280 320 L0 320 Z" fill="url(#water)" opacity="0.72"/>
  <path d="M80 264 C250 244 430 274 610 252 C790 230 1010 258 1200 238" fill="none" stroke="#ffffff" stroke-width="4" opacity="0.32"/>
</svg>
